<svg id="Слой_1" data-name="Слой 1" xmlns="http://www.w3.org/2000/svg" viewBox="0 0 716.43 623.38"><defs><style>.cls-1{fill:#feb16c;}.cls-2{fill:#8e8fb3;}.cls-3{fill:#fff;}.cls-4{opacity:0.3;}.cls-5{fill:#262f6a;}.cls-6{opacity:0.7;}.cls-7{fill:#f17e80;}.cls-8{fill:#fe1f1f;}.cls-9{fill:#cc92fa;}.cls-10{opacity:0.55;}</style></defs><title>start-04</title><ellipse class="cls-1" cx="313" cy="306.07" rx="313" ry="299.5"/><path class="cls-2" d="M36.58,405.74c5.15,29.26,19.82,47.76,33,58.88a98.72,98.72,0,0,0,40.34,20.52l5.43-27.34c-2.84-.63-44.22-10.47-51.67-59.33a110.77,110.77,0,0,1-.86-24.6A13.94,13.94,0,1,0,35,371.93,140,140,0,0,0,36.58,405.74Z"/><path class="cls-3" d="M36.58,405.74c13.2,3.68,21.71-.9,27.12-7.29a110.79,110.79,0,0,1-.86-24.6A13.94,13.94,0,1,0,35,371.91,140.1,140.1,0,0,0,36.58,405.74Z"/><g class="cls-4"><path class="cls-5" d="M35,371.91a14,14,0,0,1,13.72-13,13.68,13.68,0,0,0-2.86,7.54,137.76,137.76,0,0,0,1.56,33.84c5.15,29.26,19.82,47.75,33,58.88A102.53,102.53,0,0,0,111.58,477L110,485.14a98.78,98.78,0,0,1-40.34-20.52C56.44,453.5,41.78,435,36.6,405.74A138.09,138.09,0,0,1,35,371.91Z"/></g><path class="cls-5" d="M110,489.06a4.77,4.77,0,0,1-.76-.06,103.08,103.08,0,0,1-42.13-21.38c-18.38-15.5-39.53-44.71-35.95-96a17.87,17.87,0,1,1,35.66,2.5c-4.71,67.6,47.28,79.38,49.51,79.83a3.93,3.93,0,0,1,3,4.62,2.52,2.52,0,0,1-.25.76l-5.27,26.56A3.93,3.93,0,0,1,110,489.06Zm-61-126.2a10,10,0,0,0-10,9.32c-3.33,48,16.2,75.12,33.18,89.45a97.21,97.21,0,0,0,34.78,18.69l3.92-19.73c-13.4-4.21-56.36-22.82-51.87-87a10,10,0,0,0-9.31-10.7Z"/><path class="cls-2" d="M208.08,530c-6.24,14.85-18.22,26-40.93,21.36-55.88-11.36-89.69-31.85-87.37-122,1.33-52.24,15-89.59,26.31-111.75,8.2-16.13,15.11-24.22,15.11-24.22l92.15,17,1.17.22-.06,17.28L214,478.73S217.18,508.3,208.08,530Z"/><path class="cls-3" d="M208.08,530c-49.69-2.63-89.29-50.77-89.29-109.78,0-60.71,41.9-109.93,93.59-109.93.32,0,.66,0,1,0l1.17.22L214,478.73S217.18,508.3,208.08,530Z"/><g class="cls-4"><path class="cls-5" d="M214.52,310.51l-.06,17.28c-3,.31-4.71.42-4.71.42s-55.35,6.36-103.68-10.65c8.19-16.11,15.11-24.22,15.11-24.22l92.15,17Z"/></g><path class="cls-5" d="M177,556.62a54.1,54.1,0,0,1-10.72-1.15c-25.07-5.09-50.66-12.59-67.89-32.87-16.74-19.68-24-49.37-22.89-93.43,2.32-90.64,40.8-136.68,42.44-138.6a4.21,4.21,0,0,1,4-1.42l93.33,17.17a4.18,4.18,0,0,1,3.44,4.17l-.54,168c.43,4.17,4.44,49.58-17.12,69.22C194.59,553.64,186.52,556.62,177,556.62ZM123,297.94c-7,9.39-37,53.92-39,131.46-2.16,84.71,26.6,106.13,84,117.8,11.62,2.37,20.58.5,27.39-5.72,19-17.28,14.44-61.88,14.39-62.33a3.62,3.62,0,0,1,0-.47L210.27,314Z"/><path class="cls-2" d="M352.2,149.72c64,156.42-142.43,170-142.43,170S112,330.94,62.84,283.66C40.7,262.39,28.38,229.28,39.21,178c0,0-23.61-50.91-11.51-126.41A28.44,28.44,0,0,1,61.89,28.2c18.45,4.08,43.32,12.5,66.74,29.89,0,0,19-9.28,56.41-12.63s57.75,2.34,57.75,2.34c19.94-21.29,42.89-34,60.32-41.36a28.45,28.45,0,0,1,37.82,16.85C366.3,95.42,352.2,149.72,352.2,149.72Z"/><path class="cls-3" d="M262.59,217.12a36.06,36.06,0,0,1-33.31-25.88c-7-23.65-19.24-54.38-35.86-52.87s-23.2,33.93-25.82,58.43a36,36,0,0,1-28.13,31.42C85.09,240.05,68,265.82,62.86,283.66c49.2,47.26,146.93,36.06,146.93,36.06S308,313.26,347.89,258C339.63,241.31,318.18,219,262.59,217.12Z"/><path class="cls-3" d="M158.35,134.63c-.84,5-6.72,8.09-13.11,7s-11-6-10.12-10.93,6.72-8.08,13.11-7S159.18,129.68,158.35,134.63Z"/><path class="cls-3" d="M227.25,128.42c1.71,4.73,8,6.75,14.17,4.55s9.68-7.82,8-12.55-8-6.76-14.16-4.55S225.54,123.71,227.25,128.42Z"/><g class="cls-4"><path class="cls-5" d="M208.31,303.48s-96.75,11.11-145.45-35.7c-15.52-14.91-26.15-35.73-27.23-64.63-2.61,37.28,8.94,62.94,27.23,80.51,49.2,47.26,146.93,36.06,146.93,36.06S394.52,307.56,360.28,173.8C377.36,292.35,208.31,303.48,208.31,303.48Z"/></g><g class="cls-4"><path class="cls-5" d="M245.47,223a2.91,2.91,0,0,0-5.22.56c-2.05,5.77-6.51,14.28-15.41,15.7-14.53,2.32-14.33-16.51-14.33-16.51l-9.52.05-9.37,1.66s3.58,18.47-11.16,18.81c-9,.2-14.93-7.39-18-12.7a2.92,2.92,0,0,0-5.25.38c-3.28,8.29-5.65,24.35,17.53,35.88l28.76-15.56,31.09,10.16C255.38,246,250.18,230.57,245.47,223Z"/></g><g class="cls-6"><path class="cls-3" d="M60.34,38c17.7,3.92,41.22,11.76,63.84,27.44a9.65,9.65,0,0,0,8.89,1.13c7.84-3,25.57-8.52,52.89-11s45.77-.16,54,1.32a9.58,9.58,0,0,0,8.54-2.7c19.44-19.46,41.18-31.4,57.89-38.4A29,29,0,0,1,342.33,27.5c-.47-1.39-.95-2.77-1.42-4.16A28.45,28.45,0,0,0,303.09,6.49c-17.41,7.32-40.39,20.07-60.32,41.35,0,0-20.39-5.72-57.76-2.34s-56.4,12.64-56.4,12.64C105.19,40.77,80.32,32.32,61.87,28.25A28.45,28.45,0,0,0,27.68,51.58c-.23,1.47-.45,2.93-.65,4.37A29,29,0,0,1,60.34,38Z"/></g><path class="cls-7" d="M47.84,52.8C68,57.85,84.08,69,93.29,76.65A10.43,10.43,0,0,1,94,92a244.56,244.56,0,0,0-42.6,57.14S33.87,90.82,47.84,52.8Z"/><g class="cls-4"><path class="cls-5" d="M39.75,52.1s13.2,7.07,33.14,23a14.87,14.87,0,0,1,2,21.22c-12.48,14.68-33,42-40,70.05L39.23,178s17.84-48.81,55.89-87.33c0,0,5.45-8.42-1.83-14C93.29,76.63,64,52.53,39.75,52.1Z"/></g><path class="cls-5" d="M39.23,181.67a4.22,4.22,0,0,1-.92-.12,3.71,3.71,0,0,1-2.66-4.5c.14-.5,3.16-12.1,12.46-29.6a3.7,3.7,0,1,1,6.53,3.47c-8.83,16.67-11.8,27.86-11.82,28A3.74,3.74,0,0,1,39.23,181.67Z"/><path class="cls-5" d="M47.12,56.43a19,19,0,0,1-1.94-.75c-.65-.27-1.28-.51-1.94-.83a14.35,14.35,0,0,1-3.8-2.14l0-.05a1.71,1.71,0,0,1-.13-2.43,2,2,0,0,1,.67-.47,15.13,15.13,0,0,1,4.35-.59c.72,0,1.42,0,2.14-.06s1.42,0,2.14,0a3.73,3.73,0,1,1-1.37,7.25Z"/><path class="cls-5" d="M51.37,152.88a2.23,2.23,0,0,1-.36,0,3.72,3.72,0,0,1-3.17-2.62c-.72-2.43-17.66-60-3.47-98.72a3.71,3.71,0,0,1,4.37-2.32c20.41,5.13,36.78,16.19,46.92,24.57a14.11,14.11,0,0,1,.94,20.84,240.16,240.16,0,0,0-42,56.29A3.7,3.7,0,0,1,51.37,152.88ZM50.23,57.26c-8.59,27.64-1.58,65.23,2.41,82.06A250.52,250.52,0,0,1,91.36,89.4a6.89,6.89,0,0,0,2-5.15A6.61,6.61,0,0,0,91,79.45C81.94,72,67.75,62.37,50.23,57.26Z"/><path class="cls-7" d="M321.34,28.11c-18.9,8.58-32.76,22.46-40.46,31.61A10.42,10.42,0,0,0,283,75a243.48,243.48,0,0,1,52.14,48.61S341.86,63,321.34,28.11Z"/><g class="cls-4"><path class="cls-5" d="M329.15,26s-11.73,9.32-28.47,28.53a14.85,14.85,0,0,0,1.78,21.25c14.91,12.2,40,35.4,51.92,61.76l-2.16,12.21s-26.29-44.83-70.59-75.91c0,0-6.87-7.32-.73-14.12C280.86,59.72,305.34,30.77,329.15,26Z"/></g><path class="cls-5" d="M352.2,153.44a3.7,3.7,0,0,1-3.36-2.14c-.09-.2-5-10.68-16.65-25.41a3.69,3.69,0,1,1,5.79-4.57c12.28,15.57,17.35,26.45,17.55,26.9a3.7,3.7,0,0,1-1.8,4.91A4.14,4.14,0,0,1,352.2,153.44Z"/><path class="cls-5" d="M320,24.69c.7-.16,1.38-.32,2.1-.43s1.4-.25,2.12-.31a14.07,14.07,0,0,1,4.37-.21,1.74,1.74,0,0,1,1.39,2,1.43,1.43,0,0,1-.33.74l-.05.05a14.56,14.56,0,0,1-3.35,2.77l-1.76,1.17c-.59.38-1.17.74-1.78,1.08l-.05,0A3.74,3.74,0,1,1,319,25.07,3.66,3.66,0,0,1,320,24.69Z"/><path class="cls-5" d="M335.1,127.29a3.72,3.72,0,0,1-2.91-1.42A240.18,240.18,0,0,0,280.84,78a14.24,14.24,0,0,1-6-9.83A14,14,0,0,1,278,57.33c8.47-10.07,22.6-23.88,41.76-32.57a3.68,3.68,0,0,1,4.71,1.48c20.91,35.57,14.55,95.22,14.26,97.74a3.72,3.72,0,0,1-2.66,3.15A3.94,3.94,0,0,1,335.1,127.29ZM319.78,33c-16.35,8.15-28.56,20.22-36.08,29.14a6.53,6.53,0,0,0-1.51,5.14A6.88,6.88,0,0,0,285.07,72a251.48,251.48,0,0,1,47,42.16C333,96.84,333.16,58.59,319.78,33Z"/><path class="cls-5" d="M225.83,273.77c-4.23,4-10.45,7.05-19.48,7.86-9.33.83-16.13-1.21-21.06-4.57-11.76-7.95-13-23.11-13-23.11s24.92,7.25,29.92-17.32c0,0,7.9,23.56,32.61,11.66C234.84,248.29,236.44,263.84,225.83,273.77Z"/><path class="cls-8" d="M225.83,273.77c-4.23,4-10.45,7.05-19.48,7.86-9.33.83-16.13-1.22-21.06-4.57,0,0-.52-17.17,18.89-18.92C218.42,256.85,223.92,267.85,225.83,273.77Z"/><path class="cls-5" d="M202.25,286.05c-8.72,0-16-2.48-21.87-7.39-11-9.26-12.24-23.77-12.28-24.37a4.23,4.23,0,0,1,1.55-3.61,4.28,4.28,0,0,1,3.86-.79c.09,0,9.73,2.71,16.91-1.66,3.9-2.37,6.49-6.56,7.68-12.44a4.28,4.28,0,0,1,3.88-3.38,4.23,4.23,0,0,1,4.25,2.86c0,.07,2.87,8.11,9.94,11,4.64,1.94,10.31,1.33,16.85-1.82a4.3,4.3,0,0,1,3.89.11,4.22,4.22,0,0,1,2.14,3.27c.07.6,1.42,15.11-7.72,26.17-5.66,6.85-14,10.81-24.62,11.78A42.31,42.31,0,0,1,202.25,286.05Zm-24.55-27a27.56,27.56,0,0,0,8.19,13.18c5,4.19,11.74,5.92,20.07,5.18s14.69-3.69,18.86-8.74a27.12,27.12,0,0,0,5.65-14.15c-6.42,1.94-12.34,1.78-17.66-.47a24.91,24.91,0,0,1-9.66-7.48,23.17,23.17,0,0,1-8.43,8.88C188.93,259,182.4,259.4,177.7,259.06Z"/><path class="cls-5" d="M219.34,220.68A9.5,9.5,0,0,0,215,205.41c-.12,0-.25-.07-.36-.12a38.93,38.93,0,0,0-30.68,3,2.12,2.12,0,0,1-.21.11,9.42,9.42,0,0,0-1.39,15.34A34.12,34.12,0,0,0,195,230a18.57,18.57,0,0,0,13.27-1.17A35.09,35.09,0,0,0,219.34,220.68Z"/><path class="cls-5" d="M161.14,235.25a71.21,71.21,0,0,0,3.6,6.58,29.48,29.48,0,0,0,4.35,5.32,14,14,0,0,0,5.29,3.17,16.29,16.29,0,0,0,6.24.61,16,16,0,0,0,1.72-.23l1.75-.29a14.39,14.39,0,0,0,1.69-.4l1.65-.43a18.89,18.89,0,0,0,5.56-3,13.61,13.61,0,0,0,3.6-4.62,15.42,15.42,0,0,0,1-2.86c.09-.5.22-1,.27-1.51,0-.25.07-.5.09-.74a2.25,2.25,0,0,0,0-.34c0-.11,0-.23,0-.2l.05.11a4.34,4.34,0,0,0,8.35-.88.91.91,0,0,1,.05.2,2.18,2.18,0,0,0,.09.34c.07.23.11.47.2.72.14.47.36,1,.54,1.44a15.67,15.67,0,0,0,1.49,2.66,13.47,13.47,0,0,0,4.37,3.92,19,19,0,0,0,6,1.94l1.72.13a10.76,10.76,0,0,0,1.73.12l1.78,0a16.19,16.19,0,0,0,1.73-.06,16.57,16.57,0,0,0,6.09-1.69,15,15,0,0,0,4.73-4.08c2.7-3.45,4.41-8.31,5.6-13.22l.05-.16a1.61,1.61,0,0,1,2-1.19,1.63,1.63,0,0,1,1.21,1.23,24.87,24.87,0,0,1,.28,8.77,24,24,0,0,1-3,8.62,20.32,20.32,0,0,1-6.8,6.94,22.48,22.48,0,0,1-9.1,3.22,20.48,20.48,0,0,1-2.28.23l-2.23.13a39.05,39.05,0,0,1-4.57-.18c-.76-.11-1.55-.27-2.34-.4a15,15,0,0,1-2.34-.57c-.77-.24-1.56-.49-2.32-.76l-2.26-1.11a21.1,21.1,0,0,1-7.38-6.8,20,20,0,0,1-2.26-4.44,20.5,20.5,0,0,1-.72-2.38c-.11-.41-.18-.81-.27-1.24,0-.2-.06-.43-.11-.66s-.07-.42-.09-.78l8.4-.77c0,.36.05.56.05.79s0,.45,0,.67c0,.43,0,.86,0,1.27,0,.83-.16,1.64-.27,2.47a21.18,21.18,0,0,1-1.42,4.78,20,20,0,0,1-1.13,2.27L203,249c-.23.36-.5.7-.74,1a14.73,14.73,0,0,1-1.67,1.94,15.62,15.62,0,0,1-1.85,1.71l-2,1.49c-.7.43-1.42.81-2.14,1.19a12.59,12.59,0,0,1-2.21,1c-.74.27-1.49.59-2.23.84l-2.25.56a16.43,16.43,0,0,1-2.26.45l-2.23.27c-.74.09-1.48.18-2.27.2a26.7,26.7,0,0,1-4.8-.22,21.56,21.56,0,0,1-12.77-6.92,23.9,23.9,0,0,1-5.68-16.76,1.67,1.67,0,0,1,1.78-1.55,1.7,1.7,0,0,1,1.4.92Z"/><path class="cls-5" d="M198,236.36l.68-2.53a3.57,3.57,0,0,1,4.35-2.5,3.51,3.51,0,0,1,2.27,1.89l1.13,2.37a4.5,4.5,0,0,1-8.14,3.85A4.34,4.34,0,0,1,198,236.36Z"/><path class="cls-3" d="M210.63,208.85c.13,1.42-4.6,3-10.54,3.54s-10.88-.18-11-1.6,4.59-3,10.54-3.54S210.51,207.43,210.63,208.85Z"/><path class="cls-5" d="M158.26,182c1.48,16.47-8.11,30.79-21.43,32s-25.31-11.18-26.8-27.64,8.11-30.79,21.42-32S156.77,165.51,158.26,182Z"/><path class="cls-3" d="M148.71,178.74c.56,6.12-3,11.44-8,11.89s-9.41-4.14-9.95-10.27,3-11.44,7.95-11.89S148.16,172.63,148.71,178.74Z"/><path class="cls-5" d="M103.88,195.52a18.76,18.76,0,0,1,10.93-.84,23,23,0,0,1,10.2,5.21,26.46,26.46,0,0,1,8.81,19.53,2.88,2.88,0,0,1-2.89,2.88,3,3,0,0,1-2.3-1.13l-.15-.2c-2-2.61-3.4-5.27-5.07-7.61a49.69,49.69,0,0,0-5-6.53,29.18,29.18,0,0,0-6.2-5.12,43.3,43.3,0,0,0-8.22-3.8l0,0a1.29,1.29,0,0,1-.77-1.62A1.2,1.2,0,0,1,103.88,195.52Z"/><path class="cls-5" d="M235.81,175c1.49,16.46,13.49,28.85,26.8,27.64s22.91-15.52,21.43-32S270.54,141.8,257.23,143,234.32,158.53,235.81,175Z"/><path class="cls-3" d="M244.71,171c.56,6.13,5,10.73,9.95,10.28s8.52-5.77,8-11.9-5-10.72-10-10.27S244.14,164.93,244.71,171Z"/><path class="cls-5" d="M292.05,180.92a45.09,45.09,0,0,0-7.41,5.23,29.18,29.18,0,0,0-5.18,6.15,50.75,50.75,0,0,0-3.76,7.32c-1.22,2.61-2.14,5.45-3.62,8.38l-.12.22a2.88,2.88,0,0,1-5.4-.79,24.83,24.83,0,0,1,.31-10.7,25.55,25.55,0,0,1,4.84-10.09,22.58,22.58,0,0,1,9.1-6.93,18.81,18.81,0,0,1,10.91-1.15,1.27,1.27,0,0,1,1,1.51,1.19,1.19,0,0,1-.6.83Z"/><path class="cls-5" d="M124.36,241.31a2.23,2.23,0,0,1-.68-.09l-34.44-9.17A2.63,2.63,0,0,1,90.59,227L125,236.13a2.63,2.63,0,0,1,1.87,3.22A2.66,2.66,0,0,1,124.36,241.31Z"/><path class="cls-5" d="M97.73,272.8a2.65,2.65,0,0,1-1.06-5.07L127,254.6a2.64,2.64,0,1,1,2.09,4.84L98.77,272.58A3,3,0,0,1,97.73,272.8Z"/><path class="cls-5" d="M279.33,227.32a2.64,2.64,0,0,1-1.13-5l32.26-15.18a2.64,2.64,0,0,1,2.25,4.77l-32.26,15.19A3.09,3.09,0,0,1,279.33,227.32Z"/><path class="cls-5" d="M311.15,253.54a3.05,3.05,0,0,1-.6-.06L278.34,246a2.65,2.65,0,1,1,1.19-5.16l32.21,7.48a2.64,2.64,0,0,1-.59,5.22Z"/><path class="cls-5" d="M184.36,325.13a295.32,295.32,0,0,1-32.79-1.8c-42.71-4.78-75.91-19-96.07-41.16-22.71-25-29.67-59.85-20.68-103.73-3.7-8.65-22.5-57.39-11.29-127.53A32.88,32.88,0,0,1,37.48,29,32.33,32.33,0,0,1,62.82,24.1C80,27.89,105.16,36,129.18,53.27c6.26-2.59,24.8-9.23,55.47-12s50.1.45,56.75,1.87c20.52-21.27,43.87-33.77,60-40.57a32.19,32.19,0,0,1,25.81.27A33,33,0,0,1,344.9,21.92c23.6,67,13.81,118.32,11.73,127.49,16.72,41.56,16.11,77.15-1.78,105.75-15.85,25.39-46,45.35-87.15,57.69a289.1,289.1,0,0,1-57.52,11.08A249.51,249.51,0,0,1,184.36,325.13ZM55.72,31.76A24.27,24.27,0,0,0,31.87,52.24c-11.71,73.2,11,123.48,11.19,124a4.09,4.09,0,0,1,.3,2.64c-8.81,41.72-2.64,74.56,18.38,97.65,45.59,50.09,146.54,39.14,147.56,39l.2,0c1-.07,102.35-7.43,138.19-64.83,16.53-26.46,16.74-59.89.59-99.33a4.25,4.25,0,0,1-.18-2.66c.13-.52,13.44-54-11.2-124a24.24,24.24,0,0,0-32.21-14.37C288.83,17,265.74,29.42,245.83,50.68a4.19,4.19,0,0,1-4.21,1.17c-.18,0-20.25-5.45-56.22-2.2s-54.74,12.14-54.92,12.23a4.24,4.24,0,0,1-4.34-.41C102.75,44.11,77.8,36,61,32.33A24.16,24.16,0,0,0,55.72,31.76Z"/><path class="cls-9" d="M561.79,613.42a59.89,59.89,0,0,1-13.51-1.64c-40.62-9.37-39.81-40.21-39.2-62.73.3-11.24.59-21.85-3.85-27.21-.88-1.08-2.3-2.34-5.5-2.62-13.58-1.21-39.3,15.93-52.32,27a8.47,8.47,0,1,1-11-12.88c4-3.4,39.69-33.18,64.78-31a24.29,24.29,0,0,1,17.09,8.72c8.48,10.27,8.09,24.6,7.71,38.45-.65,24.51.27,39.83,26.06,45.77,10.59,2.43,18.54,1.2,24.26-3.83,12.5-10.94,12.91-37.82,12-47.25a8.47,8.47,0,1,1,16.87-1.6c.15,1.73,3.8,42.75-17.71,61.6C580.51,610.34,571.88,613.42,561.79,613.42Z"/><g class="cls-4"><path class="cls-5" d="M588.21,560.9a98.35,98.35,0,0,0,1.58-22.26,8.56,8.56,0,0,0-1.42,5.54A94.32,94.32,0,0,1,588.21,560.9Z"/></g><g class="cls-4"><path class="cls-5" d="M588.75,595.72c-7,6.15-15.65,9.26-25.74,9.26a59.78,59.78,0,0,1-13.52-1.65c-40.61-9.37-39.8-40.2-39.19-62.73.29-11.24.59-21.85-3.85-27.21-.88-1.08-2.3-2.34-5.5-2.61-13.58-1.22-39.31,15.92-52.32,27a8.47,8.47,0,0,1-13.34-3.24,8.46,8.46,0,0,0,12.12,11.71c13-11.08,38.74-28.2,52.32-27,3.2.29,4.62,1.55,5.5,2.61,4.42,5.36,4.15,16,3.85,27.21-.61,22.53-1.42,53.36,39.2,62.73a59.36,59.36,0,0,0,13.51,1.65c10.09,0,18.72-3.09,25.75-9.26,11.8-10.34,16-27.35,17.41-40.88C602.79,574.91,598.19,587.43,588.75,595.72Z"/></g><path class="cls-5" d="M561.79,617.66a64.38,64.38,0,0,1-14.46-1.76c-44-10.13-43.07-44.33-42.48-67,.27-10,.54-20.25-2.89-24.42-.31-.36-.76-.92-2.61-1.11-10.43-.94-33.67,12.78-49.21,26a12.71,12.71,0,0,1-16.49-19.35c6.73-5.74,41.65-34.26,67.89-32a28.52,28.52,0,0,1,20,10.25c9.46,11.49,9.05,26.61,8.67,41.22-.68,25.64,1.2,36.56,22.8,41.54,9.19,2.12,15.9,1.17,20.54-2.91,11.1-9.73,11.37-35.43,10.59-43.67a12.7,12.7,0,1,1,25.29-2.41c.18,1.82,4,44.91-19.12,65.19C582.51,614.19,572.92,617.66,561.79,617.66ZM498.38,515q.89,0,1.74.06a11.61,11.61,0,0,1,8.38,4.13c5.42,6.59,5.13,18,4.79,30-.58,22.23-1.32,49.91,35.93,58.5,14.62,3.37,26.6,1.12,35.52-6.67,19.92-17.46,16.34-57.64,16.29-58a4.25,4.25,0,1,0-8.47.81c0,.37,3.24,36.23-13.42,50.84-6.83,6-16,7.55-28,4.78-30.48-7-29.94-27.89-29.33-50,.34-13.09.7-26.61-6.76-35.64a20.3,20.3,0,0,0-14.21-7.21c-19-1.66-47.71,18.07-61.67,30a4.25,4.25,0,1,0,5.51,6.47C454.1,535,481.42,515,498.38,515Z"/><path class="cls-9" d="M486.29,404.84c20.34,95.87-40.91,190.07-136.77,210.41S159.45,574.34,139.11,478.48a177.45,177.45,0,1,1,347.18-73.64Z"/><g class="cls-4"><path class="cls-5" d="M377.38,580.13a177.43,177.43,0,0,1-188.6-265.48A177.46,177.46,0,1,0,464.51,533.57,176.89,176.89,0,0,1,377.38,580.13Z"/></g><path class="cls-5" d="M168.68,444.13a2.25,2.25,0,0,1-1.75-.86,2.28,2.28,0,0,1,.36-3.18c48.07-38.36,99.9-60.75,154-66.56a2.26,2.26,0,0,1,.47,4.49c-53.29,5.72-104.34,27.77-151.71,65.59A2.15,2.15,0,0,1,168.68,444.13Z"/><path class="cls-5" d="M154.9,435a2.26,2.26,0,0,1-1.49-4c43.77-37.75,90.71-62.1,139.57-72.35a2.24,2.24,0,1,1,.92,4.39c-48.09,10.09-94.38,34.1-137.56,71.36A2.17,2.17,0,0,1,154.9,435Z"/><path class="cls-5" d="M141.5,425a2.24,2.24,0,0,1-1.67-.75,2.26,2.26,0,0,1,.13-3.17c38.84-35.46,80.51-60.21,123.92-73.59a2.25,2.25,0,1,1,1.32,4.3C222.45,365,181.32,389.44,143,424.44A2.3,2.3,0,0,1,141.5,425Z"/><path class="cls-5" d="M139.43,405.56a2.25,2.25,0,0,1-1.51-3.92c30-27.12,61.76-48,94.51-62a2.24,2.24,0,1,1,1.78,4.12c-32.3,13.86-63.68,34.47-93.28,61.25A2.26,2.26,0,0,1,139.43,405.56Z"/><path class="cls-5" d="M148.62,376.35a2.23,2.23,0,0,1-1.74-.81,2.27,2.27,0,0,1,.29-3.18,351,351,0,0,1,53.25-36.89,2.25,2.25,0,1,1,2.21,3.92,350,350,0,0,0-52.57,36.42A2.19,2.19,0,0,1,148.62,376.35Z"/><path class="cls-5" d="M290.27,485.64a2.26,2.26,0,0,1-2.16-1.62,267.3,267.3,0,0,0-44.57-87,2.23,2.23,0,0,1,.42-3.15,2.27,2.27,0,0,1,3.16.43,271.8,271.8,0,0,1,45.32,88.48,2.24,2.24,0,0,1-1.53,2.79A2,2,0,0,1,290.27,485.64Z"/><path class="cls-5" d="M310.3,486.65a2.29,2.29,0,0,1-2.19-1.69,266.44,266.44,0,0,0-46.67-94.8,2.25,2.25,0,1,1,3.58-2.73,270.67,270.67,0,0,1,47.46,96.41,2.26,2.26,0,0,1-1.59,2.75A3.19,3.19,0,0,1,310.3,486.65Z"/><path class="cls-5" d="M328.27,486.32a2.22,2.22,0,0,1-2.18-1.76A265.38,265.38,0,0,0,280,385.2a2.26,2.26,0,0,1,3.63-2.68,270.52,270.52,0,0,1,46.87,101,2.25,2.25,0,0,1-1.69,2.7A2.32,2.32,0,0,1,328.27,486.32Z"/><path class="cls-5" d="M346.34,483.91a2.26,2.26,0,0,1-2.21-1.81c-7.72-37-22.48-70.05-45.07-101.11a2.26,2.26,0,0,1,3.65-2.66c23,31.58,38,65.23,45.84,102.85a2.24,2.24,0,0,1-1.74,2.66A1.91,1.91,0,0,1,346.34,483.91Z"/><path class="cls-5" d="M364.18,481a2.24,2.24,0,0,1-2.21-1.82,264.56,264.56,0,0,0-42.68-101.54A2.25,2.25,0,1,1,323,375a269.26,269.26,0,0,1,43.41,103.25,2.27,2.27,0,0,1-1.78,2.64A1.5,1.5,0,0,1,364.18,481Z"/><path class="cls-5" d="M203.78,462.46a2.28,2.28,0,0,1-1.94-1.1A279.93,279.93,0,0,0,181.75,432a2.25,2.25,0,0,1,3.54-2.77,285.4,285.4,0,0,1,20.4,29.89,2.27,2.27,0,0,1-.79,3.09A2.15,2.15,0,0,1,203.78,462.46Z"/><path class="cls-5" d="M229.84,472.73a2.28,2.28,0,0,1-2-1.26,263.76,263.76,0,0,0-31.44-49.42,2.26,2.26,0,1,1,3.53-2.81,267.52,267.52,0,0,1,32,50.23,2.26,2.26,0,0,1-1,3A1.93,1.93,0,0,1,229.84,472.73Z"/><path class="cls-5" d="M253.4,479.74a2.23,2.23,0,0,1-2.07-1.4A272.64,272.64,0,0,0,212,412.61a2.26,2.26,0,0,1,3.52-2.83,277.14,277.14,0,0,1,39.94,66.81,2.27,2.27,0,0,1-1.22,3A2.36,2.36,0,0,1,253.4,479.74Z"/><path class="cls-5" d="M275,484.27a2.25,2.25,0,0,1-2.11-1.49,270.86,270.86,0,0,0-44.71-78.7,2.26,2.26,0,1,1,3.51-2.84,275,275,0,0,1,45.46,80,2.26,2.26,0,0,1-1.36,2.88A2.53,2.53,0,0,1,275,484.27Z"/><path class="cls-5" d="M478.74,439.73a2.27,2.27,0,0,1-1.69-.74A264.5,264.5,0,0,0,390,374.52a2.26,2.26,0,1,1,1.89-4.1A269.26,269.26,0,0,1,480.41,436a2.26,2.26,0,0,1-.18,3.18A2.18,2.18,0,0,1,478.74,439.73Z"/><path class="cls-5" d="M464.51,447.33a2.29,2.29,0,0,1-1.65-.7,264.26,264.26,0,0,0-68.38-51.88,2.25,2.25,0,1,1,2.09-4,268.27,268.27,0,0,1,69.56,52.75,2.24,2.24,0,0,1-.09,3.17A2.17,2.17,0,0,1,464.51,447.33Z"/><path class="cls-5" d="M449.57,454.6A2.26,2.26,0,0,1,448,454a262.87,262.87,0,0,0-49-38,2.25,2.25,0,1,1,2.32-3.86,269.33,269.33,0,0,1,49.8,38.68,2.25,2.25,0,0,1,0,3.18A2.19,2.19,0,0,1,449.57,454.6Z"/><path class="cls-5" d="M432.59,460.39a2.15,2.15,0,0,1-1.51-.59,262.62,262.62,0,0,0-29.33-22.95,2.25,2.25,0,0,1,2.52-3.74,270,270,0,0,1,29.85,23.34,2.24,2.24,0,0,1,.16,3.17A2.28,2.28,0,0,1,432.59,460.39Z"/><path class="cls-5" d="M488.45,422.75a2.23,2.23,0,0,1-1.67-.74,264.54,264.54,0,0,0-107.24-71.9,2.25,2.25,0,0,1,1.53-4.24A268.84,268.84,0,0,1,490.14,419a2.24,2.24,0,0,1-.16,3.17A2.33,2.33,0,0,1,488.45,422.75Z"/><path class="cls-5" d="M482.3,391.67a2.32,2.32,0,0,1-1.55-.61c-31.09-29.35-68.46-50.48-111.1-62.78a2.25,2.25,0,0,1,1.26-4.32c43.34,12.5,81.34,34,113,63.83A2.26,2.26,0,0,1,484,391,2.39,2.39,0,0,1,482.3,391.67Z"/><path class="cls-5" d="M465.77,354.05a2.29,2.29,0,0,1-1.33-.43c-30.66-22.23-66.27-37.82-105.85-46.31a2.27,2.27,0,0,1-1.73-2.68,2.24,2.24,0,0,1,2.68-1.73c40.21,8.62,76.38,24.46,107.56,47.07a2.26,2.26,0,0,1-1.33,4.08Z"/><path class="cls-5" d="M432.25,312.76a2.42,2.42,0,0,1-.95-.2,300.91,300.91,0,0,0-84.42-24.82,2.24,2.24,0,0,1,.65-4.44,305.93,305.93,0,0,1,85.69,25.2,2.26,2.26,0,0,1,1.08,3A2.33,2.33,0,0,1,432.25,312.76Z"/><path class="cls-5" d="M323.16,579.57a2.23,2.23,0,0,1-1.67-.74c-5.63-6.27-11-12.73-16-19.22a2.25,2.25,0,0,1,3.56-2.75c4.91,6.4,10.23,12.78,15.77,19a2.26,2.26,0,0,1-.18,3.18A2.18,2.18,0,0,1,323.16,579.57Z"/><path class="cls-5" d="M312.33,593.08a2.2,2.2,0,0,1-1.63-.69,336.1,336.1,0,0,1-28.29-33.7,2.26,2.26,0,0,1,3.65-2.66A329.34,329.34,0,0,0,314,589.28a2.24,2.24,0,0,1-.07,3.17A2.17,2.17,0,0,1,312.33,593.08Z"/><path class="cls-5" d="M301.15,605.54a2.32,2.32,0,0,1-1.6-.65,328.56,328.56,0,0,1-40.76-49.26,2.25,2.25,0,1,1,3.73-2.53,324.21,324.21,0,0,0,40.21,48.59,2.25,2.25,0,0,1,0,3.18A2.18,2.18,0,0,1,301.15,605.54Z"/><path class="cls-5" d="M289.33,617.23a2.19,2.19,0,0,1-1.56-.63,325.67,325.67,0,0,1-54-66.63,2.25,2.25,0,0,1,3.86-2.32,320.54,320.54,0,0,0,53.22,65.68,2.27,2.27,0,0,1-1.55,3.9Z"/><path class="cls-5" d="M261.33,612.93a2.22,2.22,0,0,1-1.62-.7c-21.22-22-38.63-45.86-51.72-70.84a2.25,2.25,0,0,1,4-2.1,305.81,305.81,0,0,0,51,69.81,2.24,2.24,0,0,1-.07,3.18A2.09,2.09,0,0,1,261.33,612.93Z"/><path class="cls-5" d="M237.07,604.44a2.21,2.21,0,0,1-1.49-.57c-28-24.59-41.94-55.27-47.77-71.38A2.25,2.25,0,1,1,192,531c5.7,15.7,19.31,45.61,46.52,69.53a2.24,2.24,0,0,1,.2,3.18A2.17,2.17,0,0,1,237.07,604.44Z"/><path class="cls-5" d="M208.13,587a2.26,2.26,0,0,1-1.63-.7c-21-21.78-32.54-46-38.54-62.55a2.26,2.26,0,0,1,4.24-1.54c5.83,16.11,17.07,39.76,37.53,61a2.24,2.24,0,0,1-.07,3.17A2.12,2.12,0,0,1,208.13,587Z"/><path class="cls-5" d="M464.69,535.49a1.92,1.92,0,0,1-.41,0c-8.83-1.64-17.59-3.6-26-5.85a2.25,2.25,0,0,1,1.15-4.35c8.31,2.23,17,4.17,25.68,5.79a2.25,2.25,0,0,1-.4,4.46Z"/><path class="cls-5" d="M454.35,550.8a2.85,2.85,0,0,1-.41,0,335.68,335.68,0,0,1-42-10.43,2.26,2.26,0,0,1,1.37-4.3,330.64,330.64,0,0,0,41.47,10.27,2.27,2.27,0,0,1-.4,4.5Z"/><path class="cls-5" d="M441.94,565.54a3.56,3.56,0,0,1-.43,0,324,324,0,0,1-57.31-16.28,2.27,2.27,0,0,1,1.65-4.22,318.26,318.26,0,0,0,56.49,16.06,2.27,2.27,0,0,1,1.8,2.64A2.24,2.24,0,0,1,441.94,565.54Z"/><path class="cls-5" d="M425.52,579.57a2.24,2.24,0,0,1-.46-.05,319,319,0,0,1-50.14-14.59,2.25,2.25,0,0,1,1.63-4.19A316.12,316.12,0,0,0,426,575.13a2.24,2.24,0,0,1-.47,4.44Z"/><path class="cls-5" d="M408.46,593.35a4.22,4.22,0,0,1-.49,0,320.27,320.27,0,0,1-42.8-12.84,2.25,2.25,0,1,1,1.6-4.21A314.11,314.11,0,0,0,409,588.92a2.24,2.24,0,0,1-.5,4.43Z"/><path class="cls-5" d="M386,605.79a2,2,0,0,1-.54-.07,323.32,323.32,0,0,1-31.85-9.57,2.25,2.25,0,0,1,1.53-4.24,309.34,309.34,0,0,0,31.4,9.44,2.25,2.25,0,0,1-.54,4.44Z"/><path class="cls-5" d="M362.76,408.56a2.21,2.21,0,0,1-1.49-.56c-67.8-60-141.61-70.64-191.59-69a2.25,2.25,0,0,1-.14-4.5,282.25,282.25,0,0,1,93.37,12.27c36.87,11.49,71,31,101.36,57.85a2.27,2.27,0,0,1,.2,3.17A2.34,2.34,0,0,1,362.76,408.56Z"/><path class="cls-5" d="M355.58,379a2.3,2.3,0,0,1-1.4-.48c-48.72-38.09-104.88-57.39-166.91-57.39-.9,0-1.78,0-2.68,0a2.3,2.3,0,0,1-2.28-2.23,2.27,2.27,0,0,1,2.23-2.27c64.15-.59,122.16,19,172.41,58.34a2.23,2.23,0,0,1,.38,3.15A2.2,2.2,0,0,1,355.58,379Z"/><path class="cls-5" d="M345.08,349.45a2.11,2.11,0,0,1-1.24-.38c-42.32-27.88-90-42.71-141.71-44a2.25,2.25,0,0,1,.14-4.5c52.55,1.35,101,16.42,144,44.78a2.26,2.26,0,0,1-1.24,4.14Z"/><path class="cls-5" d="M331.38,319.86a2.26,2.26,0,0,1-1.06-.27A265.72,265.72,0,0,0,225.92,289a2.25,2.25,0,0,1,.38-4.48,269.85,269.85,0,0,1,106.16,31.13,2.24,2.24,0,0,1,.93,3A2.33,2.33,0,0,1,331.38,319.86Z"/><path class="cls-5" d="M315.66,293.79a4.27,4.27,0,0,1-1.62-.33A263.32,263.32,0,0,0,257.25,277a4.22,4.22,0,0,1,1.42-8.31,271.43,271.43,0,0,1,58.61,17,4.21,4.21,0,0,1-1.62,8.1Z"/><path class="cls-5" d="M314,486.7a267.41,267.41,0,0,1-42.26-3.33c-61.42-9.76-108.18-39.58-136.61-62.87A2.26,2.26,0,0,1,138,417c58.09,47.61,180.92,112.51,350.76,12.14A2.25,2.25,0,1,1,491,433C430.63,468.72,371.27,486.7,314,486.7Z"/><path class="cls-5" d="M311,505.51c-80.91,0-141.24-35.73-177.14-65.1a2.26,2.26,0,1,1,2.86-3.49c58,47.46,181,111.81,352.22,9.39a2.26,2.26,0,1,1,2.3,3.88C423.33,490.78,362.92,505.51,311,505.51Z"/><path class="cls-5" d="M310,523.59a268.91,268.91,0,0,1-37.88-2.65c-61.59-8.74-108.73-37.82-137.45-60.66a2.25,2.25,0,0,1,2.79-3.52c58.21,46.31,181.06,108.93,349.84,7.8a2.25,2.25,0,0,1,2.32,3.85C428.35,505.1,368.1,523.59,310,523.59Z"/><path class="cls-5" d="M308,542a271.31,271.31,0,0,1-33.16-2c-48.79-6-94.7-25.16-136.41-56.83a2.25,2.25,0,0,1,2.72-3.59c57.33,43.52,178,101.95,342.27,4.53a2.26,2.26,0,0,1,2.3,3.88C425.11,523.91,365.49,542,308,542Z"/><path class="cls-5" d="M305.93,560.49q-13.11,0-26-1.26c-47.32-4.6-92.22-21.51-133.44-50.3a2.25,2.25,0,1,1,2.57-3.69c67.69,47.25,179.41,85.68,327.38.24a2.26,2.26,0,0,1,2.25,3.92C419.84,543.35,361.86,560.49,305.93,560.49Z"/><path class="cls-5" d="M286.85,619.51a2.34,2.34,0,0,1-1.67-.72,2.26,2.26,0,0,1,.14-3.18c20.47-18.81,37.23-39.08,49.78-60.28a2.25,2.25,0,1,1,3.87,2.3c-12.77,21.58-29.8,42.19-50.59,61.29A2.2,2.2,0,0,1,286.85,619.51Z"/><path class="cls-5" d="M364.49,482.24a1.83,1.83,0,0,1-.33,0,2.24,2.24,0,0,1-1.89-2.57c9.79-65.17-11.85-136.95-64.36-213.36a2.25,2.25,0,1,1,3.72-2.54c53.18,77.37,75.07,150.24,65.1,216.57A2.26,2.26,0,0,1,364.49,482.24Z"/><path class="cls-5" d="M308.32,621.35a2.32,2.32,0,0,1-1.65-.69,2.25,2.25,0,0,1,.09-3.18c21.65-20.36,38.95-42.42,51.41-65.55a2.25,2.25,0,1,1,4,2.12c-12.68,23.56-30.27,46-52.28,66.7A2.26,2.26,0,0,1,308.32,621.35Z"/><path class="cls-5" d="M384.2,477.87a1,1,0,0,1-.24,0,2.26,2.26,0,0,1-2-2.48c9.39-87.44-37.59-169-66.45-209.84a2.25,2.25,0,1,1,3.67-2.59c29.22,41.35,76.79,124,67.24,212.92A2.21,2.21,0,0,1,384.2,477.87Z"/><path class="cls-5" d="M332.69,620.25a2.25,2.25,0,0,1-1.58-3.85c21.9-21.67,38.93-45.19,50.64-69.9a2.25,2.25,0,0,1,4.08,1.92c-11.92,25.18-29.26,49.12-51.54,71.15A2.29,2.29,0,0,1,332.69,620.25Z"/><path class="cls-5" d="M403.6,472.44h-.14a2.26,2.26,0,0,1-2.11-2.39c5.2-85.5-41.36-164-69.56-203.22a2.26,2.26,0,0,1,3.67-2.63c28.56,39.69,75.71,119.24,70.41,206.12A2.31,2.31,0,0,1,403.6,472.44Z"/><g class="cls-10"><path class="cls-3" d="M269.85,279c95.86-20.34,190.06,40.91,210.4,136.77a176.73,176.73,0,0,1-15.5,117.43,176.78,176.78,0,0,0,21.56-128.3C466,309,371.77,247.78,275.9,268.09a177.08,177.08,0,0,0-121.25,93A176.85,176.85,0,0,1,269.85,279Z"/></g><path class="cls-5" d="M312.35,623.38a182.4,182.4,0,1,1,38.09-4A183.13,183.13,0,0,1,312.35,623.38Zm.72-355a174.22,174.22,0,0,0-36.29,3.83,172.32,172.32,0,1,0,36.29-3.83Z"/><path class="cls-2" d="M417.56,274.33c-.51,9.4-4,20.75-11.42,29.35a37,37,0,0,1-22.75,12.46c-23.74,3.67-38.83-11.44-37.77-25.68a44.57,44.57,0,0,0-4.66-24c21.51-22.57,22.41-46.25,22.41-46.25C405.87,223,418.42,258.23,417.56,274.33Z"/><g class="cls-4"><path class="cls-5" d="M406.12,303.68a37,37,0,0,1-22.73,12.46c-23.74,3.67-38.83-11.44-37.77-25.68a44.57,44.57,0,0,0-4.66-24c21.51-22.57,22.41-46.25,22.41-46.25s10.58,19.24-4.73,42.49A15.47,15.47,0,0,0,356.59,275a33.66,33.66,0,0,1,.81,14.57C355.78,297.87,380.73,312.36,406.12,303.68Z"/></g><g class="cls-6"><path class="cls-3" d="M348.05,258a86.5,86.5,0,0,1-7.09,8.41s.22.38.56,1.06A81.92,81.92,0,0,0,348.05,258Z"/></g><g class="cls-6"><path class="cls-3" d="M363.37,220.18a46.32,46.32,0,0,1-1.17,7.59c39.53,4.53,51.33,38.18,50.5,53.82a52,52,0,0,1-5.93,21.28c7-8.49,10.3-19.46,10.77-28.56C418.42,258.23,405.87,223,363.37,220.18Z"/></g><path class="cls-5" d="M376.43,320.89c-10.16,0-19.37-3.26-26-9.39-6.31-5.83-9.6-13.63-9-21.35a40.23,40.23,0,0,0-4.1-21.56,4.21,4.21,0,0,1,.59-5c20-21,21.24-43.29,21.24-43.51a4.31,4.31,0,0,1,1.39-3,4.26,4.26,0,0,1,3.09-1.08c45.68,3,59,41.51,58.11,58.59-1.08,20-13.15,41.94-37.73,45.72A45.85,45.85,0,0,1,376.43,320.89ZM346,267.19a50.7,50.7,0,0,1,3.83,23.59c-.38,5.15,1.92,10.45,6.33,14.53,6.33,5.85,16,8.28,26.58,6.66,22.73-3.51,29.94-25.43,30.59-37.84.75-14-10-44.87-46.24-49.33C365.82,232.71,361.41,250,346,267.19Z"/><path class="cls-2" d="M231.8,429.12c-9.21-.83-19.69-2.2-31-4.32-25.47-4.8-55.23-13.49-84.49-29.17l1.31-2.5a109.44,109.44,0,0,0,10.07-28.72,108.46,108.46,0,0,0,.51-39.24S157.87,340.08,212.5,350c8.6,1.58,17.81,3,27.63,4.26.88.11,1.76.24,2.62.42a37.65,37.65,0,0,1-10.95,74.4Z"/><g class="cls-4"><path class="cls-5" d="M107.8,392.3a3.32,3.32,0,0,1,3.67-5.16,657.53,657.53,0,0,0,87.89,22.3c51.54,9,71.81.94,73.21-23.54,0,0,5.7,51.47-30.18,53.45C209.18,441.2,131.65,424,107.8,392.3Z"/></g><g class="cls-10"><path class="cls-3" d="M272.93,394.08s-3.72-22.78-27.8-28c-22.54-4.86-88.81-11.28-118.3-36.76-2.68-2.32-1-5.4,2.21-4a13.58,13.58,0,0,1,2.05,1.12c6,3.88,66.81,23.23,100.33,26.61S274.89,379.86,272.93,394.08Z"/></g><path class="cls-5" d="M128.86,323.78c6.89,2.29,13.92,4.5,20.9,6.6q5.25,1.58,10.52,3.08l5.27,1.51,5.3,1.44c7.05,1.94,14.16,3.63,21.31,5.23,3.58.76,7.16,1.46,10.74,2.21s7.19,1.35,10.79,2c7.21,1.23,14.44,2.41,21.69,3.35l5.45.77a45.36,45.36,0,0,1,6,1.28A40.1,40.1,0,0,1,258,356.37a41.21,41.21,0,0,1,9.24,8.09,42.1,42.1,0,0,1,5.42,46.17,41.89,41.89,0,0,1-16.78,17.57,46.35,46.35,0,0,1-11.46,4.42,45.06,45.06,0,0,1-12.25.9c-3.88-.3-7.48-.7-11.22-1.13-7.44-.88-14.8-2.12-22.14-3.51s-14.65-3.11-21.85-5.09-14.35-4.26-21.38-6.81c-14.08-5-27.73-11.51-39.76-20.47a1,1,0,0,1-.2-1.44,1.06,1.06,0,0,1,1.17-.36c14,4.86,27.55,10.16,41.38,14.77,3.47,1.08,6.94,2.23,10.45,3.18s7,1.94,10.54,2.88c7.08,1.74,14.17,3.38,21.31,4.73s14.35,2.44,21.58,3.36c1.8.2,3.61.45,5.43.65l2.73.29,1.35.14.67.07.61,0,2.46.11c.81,0,1.62-.06,2.45-.09l1.22-.06c.4,0,.81-.12,1.21-.19.82-.13,1.63-.24,2.41-.4a33.52,33.52,0,0,0,22.6-17.39,36.08,36.08,0,0,0,3.1-9.28,36.55,36.55,0,0,0,.28-9.8,37.28,37.28,0,0,0-2.55-9.44,35.49,35.49,0,0,0-5.23-8.26,33.16,33.16,0,0,0-7.36-6.42,31.8,31.8,0,0,0-8.9-4,33.25,33.25,0,0,0-4.8-1l-5.51-.77c-7.37-1-14.71-2.23-22-3.54-3.65-.72-7.33-1.39-10.95-2.14s-7.28-1.62-10.88-2.5c-7.23-1.78-14.44-3.67-21.58-5.81s-14.19-4.57-21.13-7.34c-1.71-.74-3.45-1.42-5.16-2.19s-3.4-1.53-5.09-2.36a96.63,96.63,0,0,1-9.89-5.43,1.53,1.53,0,0,1,1.31-2.75Z"/><path class="cls-2" d="M234.46,519c0,.57,0,1.15,0,1.74-.78,28.65-29.55,34.91-46.28,33.72a154.77,154.77,0,0,1-21-3.13c-18.77-4-46.2-13-65.44-32.76l1.73-3.51a94.86,94.86,0,0,0,8.63-58.14l-.27-1.64L110.77,449c.43.34,14.76,12.16,60.28,24.57,9.28,2.52,19.82,5.09,31.83,7.57A39.61,39.61,0,0,1,233,508.64,38.14,38.14,0,0,1,234.46,519Z"/><g class="cls-4"><path class="cls-5" d="M82.77,476.38s33.7,57.26,94.11,62,56.43-28.31,56.43-28.31,33.49,51.9-45.46,57.69c0,0-4.39-5.93-15.34-15.39C172.51,552.38,93.54,546.66,82.77,476.38Z"/></g><g class="cls-10"><path class="cls-3" d="M233,508.66c-5.86-7.73-16.31-15.16-34.8-18.74-59-11.44-78.23-28.45-86.34-34.6a13.42,13.42,0,0,1-1.06-.85c-5.25-4.76,0-5.41,0-5.41.43.34,14.75,12.16,60.28,24.57,9.28,2.53,19.82,5.1,31.82,7.57A39.57,39.57,0,0,1,233,508.66Z"/></g><path class="cls-5" d="M111.43,450.25c2.81,1.35,5.81,2.66,8.8,3.81,1.49.6,3,1.19,4.49,1.75s3,1.13,4.5,1.67q9,3.31,18.16,6.4a382.44,382.44,0,0,0,37.21,10.56c6.28,1.53,12.63,2.79,19,4.15a45.57,45.57,0,0,1,10.32,3.4A43.68,43.68,0,0,1,239,526.79a37.73,37.73,0,0,1-2.84,10.81,33.62,33.62,0,0,1-6.17,9.53,38.33,38.33,0,0,1-8.72,7,49.65,49.65,0,0,1-9.91,4.42,63.19,63.19,0,0,1-20.93,2.86c-1.76,0-3.51-.18-5.2-.36s-3.36-.38-5-.61c-3.34-.45-6.65-1-9.94-1.64a166.12,166.12,0,0,1-19.46-5,154.32,154.32,0,0,1-18.79-7.3,107.83,107.83,0,0,1-33.15-23.2,4,4,0,0,1,5.65-5.54l0,0a94.86,94.86,0,0,0,14.6,11.69,110.3,110.3,0,0,0,16.56,9,163.06,163.06,0,0,0,36.33,11q4.69.88,9.39,1.49c3.16.38,6.26.72,9.26.79a55.66,55.66,0,0,0,17.68-2.5,39.53,39.53,0,0,0,7.93-3.52,28.05,28.05,0,0,0,6.49-5.2,25.91,25.91,0,0,0,6.49-14.86c.11-.7.13-1.42.17-2.14s.07-1.45.07-2.19-.07-1.42-.09-2.14l0-1.06-.14-1.06a31.91,31.91,0,0,0-2.11-8.24,34.55,34.55,0,0,0-10.07-13.7,35.82,35.82,0,0,0-7.26-4.64l-2-.87c-.68-.28-1.35-.48-2-.73l-1-.36-1.06-.27-2.12-.54c-6.42-1.46-12.83-2.84-19.21-4.5a389,389,0,0,1-37.91-11.4,129.39,129.39,0,0,1-18.18-8.11c-1.46-.81-2.93-1.6-4.35-2.52s-2.83-1.78-4.21-2.75a44.66,44.66,0,0,1-7.74-6.62,1,1,0,0,1,1.23-1.62Z"/><path class="cls-9" d="M446.27,274h-7.38a12.28,12.28,0,0,1,.89-5,11.72,11.72,0,0,1,2.87-3.76,17.16,17.16,0,0,1,4.58-2.87,16.8,16.8,0,0,1,6.56-1.16,17.88,17.88,0,0,1,5.54.89,13.49,13.49,0,0,1,4.79,2.6,12.22,12.22,0,0,1,3.41,4.65,14.16,14.16,0,0,1,1.23,6,14.33,14.33,0,0,1-.75,4.79,19.73,19.73,0,0,1-1.78,3.69,8.25,8.25,0,0,1-2.05,2.12l-1.64,1.16a9.49,9.49,0,0,1,4.65,3c1.51,1.55,2.3,4.49,2.39,8.81a18.08,18.08,0,0,1-1.09,6.23,16.29,16.29,0,0,1-3,5.12,14.4,14.4,0,0,1-5.12,3.28,18.71,18.71,0,0,1-6.57,1.1,21.87,21.87,0,0,1-6.56-.89,13.63,13.63,0,0,1-4.72-2.67,11.52,11.52,0,0,1-3.14-3.55,17,17,0,0,1-1.5-5.88h8.4a6.58,6.58,0,0,0,.41,2.73,6.36,6.36,0,0,0,1.37,1.58,8.22,8.22,0,0,0,2.33,1.36,9.46,9.46,0,0,0,3.14.48,7.24,7.24,0,0,0,5.88-2.53,9.86,9.86,0,0,0,2.19-6.7,9.23,9.23,0,0,0-.76-4,6.88,6.88,0,0,0-1.77-2.6,8.58,8.58,0,0,0-2.81-1.43,14,14,0,0,0-2.87-.62H447.5v-6.7h5.88a8.44,8.44,0,0,0,5.75-2.12,7.52,7.52,0,0,0,2-5.67,7.14,7.14,0,0,0-2-5.4,6.73,6.73,0,0,0-5.06-2,8.26,8.26,0,0,0-5.34,1.64A6.44,6.44,0,0,0,446.27,274Zm29.81,39.86V262.18h26.39v7.31H483.73v13.74h17.92v7.25H483.73v16.06H503v7.32ZM526,269.42v32.47a19.35,19.35,0,0,1-.48,4.17,11.07,11.07,0,0,1-1.91,4.17,10.86,10.86,0,0,1-4.1,3.22,15.1,15.1,0,0,1-6.57,1.23,23.34,23.34,0,0,1-6.56-1.16v-8.07c1.91.77,3.28,1.27,4.1,1.5a12.94,12.94,0,0,0,2.81.41,4.21,4.21,0,0,0,3.69-1.64,8.43,8.43,0,0,0,1.23-5.06V262.18h29.6v51.68H540V269.42Zm29.53,44.44V262.45h3.22v-7.93h8.4v7.93h4v-7.93h8.4v7.93h2.33v7.32H563.17V283.3h17.91v7.25H563.17v16h19.28v7.32Zm33.77,0V262.18H597v21.26H614.1V262.18H622v51.68H614.1V290.68H597v23.18Zm49.77-32.27h5.67q8.13,0,13.06,4.31t4.92,12A16.43,16.43,0,0,1,659.76,308a14.35,14.35,0,0,1-7.52,5.26,22.08,22.08,0,0,1-3.21.48c-1.14.09-2.12.14-2.94.14h-14.7V262.18h7.66Zm0,7.18v17.91h6.29a10.54,10.54,0,0,0,6.63-2.05q2.65-2.06,2.94-6.84a9.78,9.78,0,0,0-.89-4,8.69,8.69,0,0,0-2-2.8,8.88,8.88,0,0,0-3-1.71,9.59,9.59,0,0,0-3.21-.55Zm26.66,25.09V262.18h7.93v51.68Zm50.72-51.48v51.48h-7.59V277.49l-17,36.37h-8.68V262.38h7.59v36.51l16.68-35.82a6.1,6.1,0,0,1-1.37.41,19.68,19.68,0,0,1-5.06.68,20.32,20.32,0,0,1-5.26-.68,13.44,13.44,0,0,1-5.61-2.94v-7.32c2.69,2.14,4.88,3.4,6.56,3.76a23.8,23.8,0,0,0,4.31.48,14,14,0,0,0,4.1-.41q2.53-.62,6.63-3.83v7.32a18.48,18.48,0,0,1-2.66,1.84Z"/></svg>